<?xml version="1.0" encoding="UTF-8" standalone="no"?>
<!-- Created with Inkscape (http://www.inkscape.org/) -->

<svg
   xmlns:dc="http://purl.org/dc/elements/1.1/"
   xmlns:cc="http://creativecommons.org/ns#"
   xmlns:rdf="http://www.w3.org/1999/02/22-rdf-syntax-ns#"
   xmlns:svg="http://www.w3.org/2000/svg"
   xmlns="http://www.w3.org/2000/svg"
   xmlns:sodipodi="http://sodipodi.sourceforge.net/DTD/sodipodi-0.dtd"
   xmlns:inkscape="http://www.inkscape.org/namespaces/inkscape"
   version="1.1"
   id="svg123"
   width="1129.3333"
   height="1130.6667"
   viewBox="0 0 1129.3333 1130.6667"
   sodipodi:docname="antistatic.svg"
   inkscape:version="0.92.5 (2060ec1f9f, 2020-04-08)">
  <metadata
     id="metadata129">
    <rdf:RDF>
      <cc:Work
         rdf:about="">
        <dc:format>image/svg+xml</dc:format>
        <dc:type
           rdf:resource="http://purl.org/dc/dcmitype/StillImage" />
        <dc:title />
        <cc:license
           rdf:resource="http://creativecommons.org/licenses/by-nc-sa/4.0/" />
      </cc:Work>
      <cc:License
         rdf:about="http://creativecommons.org/licenses/by-nc-sa/4.0/">
        <cc:permits
           rdf:resource="http://creativecommons.org/ns#Reproduction" />
        <cc:permits
           rdf:resource="http://creativecommons.org/ns#Distribution" />
        <cc:requires
           rdf:resource="http://creativecommons.org/ns#Notice" />
        <cc:requires
           rdf:resource="http://creativecommons.org/ns#Attribution" />
        <cc:prohibits
           rdf:resource="http://creativecommons.org/ns#CommercialUse" />
        <cc:permits
           rdf:resource="http://creativecommons.org/ns#DerivativeWorks" />
        <cc:requires
           rdf:resource="http://creativecommons.org/ns#ShareAlike" />
      </cc:License>
    </rdf:RDF>
  </metadata>
  <defs
     id="defs127" />
  <sodipodi:namedview
     pagecolor="#ffffff"
     bordercolor="#666666"
     borderopacity="1"
     objecttolerance="10"
     gridtolerance="10"
     guidetolerance="10"
     inkscape:pageopacity="0"
     inkscape:pageshadow="2"
     inkscape:window-width="1920"
     inkscape:window-height="1053"
     id="namedview125"
     showgrid="false"
     inkscape:zoom="0.64"
     inkscape:cx="559.32154"
     inkscape:cy="612.97572"
     inkscape:window-x="0"
     inkscape:window-y="0"
     inkscape:window-maximized="1"
     inkscape:current-layer="layer2" />
  <g
     inkscape:groupmode="layer"
     id="layer1"
     inkscape:label="ring"
     style="display:inline">
    <path
       style="fill:#000000;stroke-width:1.33333337"
       d="m 536.66665,1128.5664 c -73.44021,-6.0389 -132.04577,-19.8104 -190.3787,-44.7363 -35.9352,-15.3553 -58.5338,-27.5794 -92.28796,-49.9207 C 162.93273,973.63336 91.498468,888.57473 48.039365,788.66669 22.303625,729.50285 10.6002,681.15691 1.8834025,598.00002 -1.7062282,563.7555 1.7695561,513.96807 11.36712,462.15444 51.06039,247.86545 215.55926,72.813082 427.33332,19.501751 484.46312,5.120079 556.05025,-2.0933038 596.66665,2.4391022 c 8.06667,0.9001635 20.96667,2.2733766 28.66666,3.0515846 92.03667,9.3017752 186.53185,45.3044532 265.07741,100.9945332 52.59621,37.29156 103.28461,89.18213 139.94058,143.25953 58.7844,86.72274 90.4093,180.97056 97.8738,291.68063 3.1986,47.43981 -4.0237,109.73216 -19.5449,168.57464 -31.9601,121.16434 -105.6316,229.95475 -207.34689,306.18838 -77.28031,57.9201 -165.18095,93.6931 -264.66666,107.7116 -16.17487,2.2792 -72.32072,7.086 -77.01629,6.5936 -0.90771,-0.095 -11.25038,-0.9624 -22.98371,-1.9272 z m 66,-96.6253 c 41.90398,-2.9604 86.47404,-13.0178 128,-28.8837 22.6991,-8.67265 62.81275,-28.62281 82.66666,-41.1135 56.6682,-35.65169 111.80557,-90.78498 147.28809,-147.27721 18.16896,-28.92705 39.6786,-75.03555 49.8154,-106.78514 9.3129,-29.16908 17.2045,-67.23197 20.2937,-97.88153 1.9077,-18.92708 1.9304,-73.66652 0.037,-90 -6.952,-59.98094 -22.4236,-112.74203 -48.08149,-163.96728 -24.47484,-48.86332 -48.6655,-81.84096 -90.2056,-122.97168 C 860.72265,201.61602 841.45699,186.40555 806.6657,165.30911 722.81718,114.4658 628.17943,91.677707 529.99998,98.689976 c -39.11877,2.793974 -88.19583,13.324674 -124.40323,26.693784 -38.39829,14.17807 -89.2164,41.77668 -120.71269,65.55739 -26.92876,20.33208 -64.95668,57.19944 -84.98585,82.39219 -57.21156,71.96087 -90.85678,153.56759 -100.597501,244.00001 -2.574567,23.90216 -2.528661,72.06067 0.09251,97.03792 9.235021,88.00134 45.354981,175.31399 100.897171,243.89842 65.14657,80.44408 152.78891,136.54297 252.37627,161.54321 48.30755,12.1271 95.73588,15.9619 150,12.1282 z"
       id="path143"
       inkscape:connector-curvature="0" />
  </g>
  <g
     inkscape:groupmode="layer"
     id="layer3"
     inkscape:label="rot"
     style="display:inline">
    <g
       id="g4989"
       transform="translate(38.49157,-73.35403)">
      <path
         style="fill:#ff0000;stroke-width:0.89832014"
         d="m 628.22098,183.76173 c -1.13916,0 -2.27832,0.56958 -3.41748,1.13916 -1.13916,2.27834 -10.25244,18.22656 -19.9353,34.6305 -5.69591,9.11329 -11.39161,18.91009 -12.07514,21.07453 -1.13916,2.2783 -2.27833,4.55659 -3.41749,4.55659 -0.34175,0.45565 -7.97413,12.98646 -16.17611,27.7956 -7.97413,14.80907 -19.9353,34.63051 -25.4033,43.97161 -20.61882,35.76972 -30.87128,53.65451 -40.55413,70.5141 -5.69582,9.11331 -11.84728,20.61884 -14.1256,24.26413 -2.27836,3.41752 -5.6958,9.11336 -6.83498,12.53083 -2.27831,3.41748 -6.83496,11.39162 -10.25244,17.99873 -3.41748,6.835 -9.11331,14.92303 -10.25247,18.34052 -2.27832,3.41749 -4.55665,6.83497 -4.55665,9.11329 -0.91133,1.13917 -1.13916,2.27833 -1.13916,3.41748 0,0.45567 -0.56958,1.13915 -1.13916,2.27832 -0.68349,0.56958 -1.13916,1.13915 -1.13916,2.2784 0,0.56953 3.41748,3.41742 9.11329,5.69572 4.55665,2.27834 10.25247,5.69587 11.84729,6.83498 2.27833,1.02525 4.55665,2.27834 5.69581,3.4175 1.13916,0.56955 2.27832,1.13917 2.27832,1.13917 0.22782,0.34174 3.41746,2.2783 6.83497,4.55661 3.41747,2.27834 6.83494,3.4175 7.97412,3.4175 0.56957,0 3.41746,-3.4175 6.83497,-7.97411 6.83497,-10.25247 13.44205,-14.80913 24.26408,-20.16317 17.08751,-7.97415 37.25066,-12.6447 93.41136,-19.82139 5.6958,-0.79746 11.3916,-1.1392 12.07503,-2.27836 0.68354,-0.22782 3.41748,-0.79741 6.83507,-1.13916 28.479,-4.55664 52.85709,-10.25246 76.77945,-20.16319 10.25244,-4.55661 35.76969,-17.8848 39.41498,-21.30226 0.45573,-0.45566 -2.27832,-5.69584 -5.6958,-10.25251 -3.41748,-5.69579 -5.6958,-10.25241 -5.6958,-10.25241 0,-0.22784 -1.0252,-2.27831 -2.27832,-4.55667 -1.13916,-2.27832 -3.41748,-5.69584 -4.55664,-6.835 -9.11328,-16.85957 -14.69523,-25.97285 -15.60658,-27.11203 -0.56947,-0.68349 -2.27821,-3.41749 -4.55664,-6.83496 -2.27832,-3.41751 -5.69569,-9.1133 -7.97412,-13.89775 -5.6958,-9.11332 -13.44211,-23.12498 -16.85959,-29.1626 -2.27832,-3.41745 -5.6958,-9.11326 -23.58059,-40.782 -4.55664,-7.97407 -10.25244,-17.9987 -13.44211,-23.35278 -3.41748,-5.6958 -6.83496,-12.53077 -9.11328,-15.72042 -2.27843,-3.4175 -7.97423,-12.87253 -12.41691,-21.53015 -7.97412,-14.23956 -9.11328,-15.72042 -11.3916,-15.72042 z m 201.60888,346.31655 c -0.34177,0 -1.13916,0.56958 -2.27832,1.13916 -0.68354,0.6835 -5.6958,5.69581 -11.96118,12.41687 -16.51793,16.97351 -29.04869,30.3017 -47.16129,50.12312 -14.35346,15.72043 -20.7328,22.44148 -30.30181,32.01044 -4.55664,4.55665 -9.11317,9.1133 -9.11317,10.25246 0,0.34175 1.13916,1.13916 3.41737,2.27832 2.27843,0.91133 5.6958,3.41748 9.11339,5.6958 20.61884,12.18903 47.16118,27.33988 47.95868,27.33988 0.45562,0 0.91135,0.34175 0.91135,0.91133 0,0.45566 0.34166,0.91133 0.79739,0.91133 0.45562,0 9.11328,4.55665 19.70749,11.39162 10.25244,5.69581 23.80851,13.78386 29.84608,17.20134 5.69569,3.41749 14.58116,7.97414 19.13791,11.39162 4.55664,2.27833 11.3916,6.83497 14.92304,7.97413 3.41737,2.27832 6.83485,3.41749 6.83485,4.55665 0.22792,0.34175 3.41759,2.27832 7.97416,4.55665 6.835,3.41748 12.0751,6.83497 15.3787,9.11329 0.9114,0.56958 3.4175,2.27832 4.5567,2.27832 1.1391,0.6835 3.4174,2.27832 5.6958,3.41749 1.1391,0.91132 5.6958,3.4175 10.2524,5.69582 10.2524,5.69581 15.1509,9.11332 27.112,15.72039 5.6958,3.41749 11.3916,6.83501 12.8726,6.83501 v 0.044 c 2.2784,1.13916 2.2784,1.13916 3.4174,-0.79744 0.114,-1.13915 -0.5694,-3.41748 -1.139,-4.55664 -0.9114,-1.13916 -2.2784,-3.41747 -3.4176,-5.69578 -10.2524,-18.68227 -36.567,-63.67916 -40.3263,-69.83064 -2.2783,-3.41748 -3.4175,-6.83497 -3.4175,-6.83497 0,-0.22783 -4.5566,-6.83497 -9.1133,-15.49259 -4.5566,-7.97373 -12.4169,-21.41584 -16.7456,-29.04822 -4.5566,-7.97414 -10.25256,-17.77093 -13.10046,-22.4415 -2.27821,-4.55664 -6.83485,-11.39161 -7.97412,-14.8091 -2.27832,-3.41748 -4.55664,-7.97413 -5.69569,-9.11329 -1.02531,-2.27832 -3.41759,-4.55665 -4.55675,-6.83497 -1.13916,-2.27832 -5.6958,-9.11329 -9.11328,-15.26477 -3.41748,-5.69581 -7.97412,-13.89777 -10.25244,-17.08743 -9.11328,-16.17609 -13.89784,-24.26414 -14.58127,-24.26414 z m -407.80853,9.11329 c -2.27832,0.45568 -3.41747,3.41748 -7.97413,11.39163 -2.27832,4.55664 -9.11328,16.85959 -15.26477,26.42855 -5.69581,9.11329 -10.25246,18.3405 -11.39162,19.36574 -0.45567,1.02526 -1.13916,3.41749 -2.27832,4.55666 -2.27832,4.55663 -14.58127,24.83372 -16.9735,29.16253 -1.13917,2.27832 -3.41749,5.69582 -4.55666,7.97414 -1.13915,2.27832 -4.55665,7.97413 -6.83496,11.96119 -2.27833,4.55665 -4.55665,7.97414 -4.55665,7.97414 0,0.22782 -1.13917,3.41748 -3.41748,6.83497 -2.27834,3.41748 -4.55665,6.83496 -4.55665,7.97413 -0.45567,1.02523 -1.13917,3.41748 -2.27833,4.55664 -2.27831,4.55665 -20.39099,34.97227 -21.07448,36.33926 -0.34175,0.68351 -1.13918,2.27833 -2.27834,3.41749 -0.56956,1.02524 -3.41749,5.6958 -5.6958,9.11329 -2.27833,4.55665 -6.83497,12.30295 -10.25246,18.11267 -3.41748,5.69581 -5.69582,11.3916 -5.69582,11.50555 0,0.56958 -0.34173,1.02524 -0.6835,1.02524 -0.45566,0 -1.13913,1.02523 -2.2783,2.2783 -0.5696,1.13915 -6.83498,12.30297 -13.89778,24.49196 -6.83498,12.07514 -14.23953,24.71985 -15.83437,27.90951 -1.13916,3.41745 -3.41749,5.69578 -3.41749,6.83494 -0.34177,0.22784 -2.27833,3.41748 -3.41747,5.69583 -1.13916,3.41746 -3.41749,6.83495 -4.55666,7.97416 -0.91132,1.1391 -1.13919,3.41742 -1.13919,4.55663 l 0.0569,2.27829 H 596.49536 941.2284 l -3.4175,-2.27829 c -2.2783,-1.0253 -3.4175,-2.27834 -4.5566,-2.27834 -0.6835,-0.45566 -3.4175,-2.27829 -6.835,-3.4175 -3.4175,-1.13917 -13.2143,-7.97409 -22.8971,-13.21428 -9.1133,-5.69579 -18.91011,-11.39161 -20.61885,-11.96117 -2.27832,-1.02527 -12.30295,-6.83496 -23.35278,-13.55605 -28.59296,-16.51783 -48.41441,-28.02335 -52.0597,-30.07384 -2.27832,-0.91135 -9.11328,-5.69581 -16.17605,-9.1133 -6.83507,-4.55664 -15.26481,-9.11331 -17.8849,-10.25247 -2.27832,-1.13916 -5.6958,-3.41748 -5.6958,-3.41748 -0.68354,-0.68349 -3.41748,-2.27832 -10.25244,-6.83497 -3.41748,-2.27832 -12.07514,-6.83497 -18.45448,-10.25246 -6.83485,-3.41748 -13.44211,-7.97413 -15.72032,-9.11329 -2.27843,-1.13916 -10.25255,-5.69581 -16.8597,-9.11329 -6.83496,-4.55665 -13.2143,-6.83497 -13.66992,-6.83497 -0.45562,0 -1.0252,-0.34175 -1.13916,-0.6835 -0.45562,-1.02524 -18.79614,-11.84728 -20.16322,-11.84728 -0.56947,0 -3.41748,2.27832 -5.6958,4.55664 -2.27832,2.27833 -5.6958,5.69582 -7.97412,6.83498 -7.97412,7.97413 -22.7832,22.78323 -36.68093,39.30107 -11.39171,13.44211 -14.69523,16.85959 -16.85959,16.85959 -0.68354,0 -2.27843,-2.27831 -3.41759,-4.55664 -3.41748,-7.97413 -6.83491,-9.11329 -14.12554,-11.50553 -10.25246,-2.27832 -17.08743,-0.79742 -24.83373,6.83497 -5.69581,4.55664 -13.44211,16.28998 -17.08741,23.92237 -2.27836,4.55668 -4.55665,7.97416 -6.83497,6.835 -1.13915,-0.68348 -1.02525,-6.835 1.13916,-34.63051 1.02523,-12.87253 2.27832,-16.97352 3.41745,-21.53016 4.55667,-11.39163 13.32822,-22.66932 29.73213,-39.52892 15.03691,-15.37868 23.12492,-24.15023 24.15023,-25.85898 0.45562,-0.79741 1.13916,-2.27832 2.27832,-2.27832 3.41748,-3.41748 3.41748,-4.55664 -0.68354,-6.83497 -2.27832,-1.13916 -3.41749,-2.27832 -4.55662,-2.27832 -0.34178,0 -2.27834,-1.02524 -4.55666,-2.27832 -4.55675,-3.41748 -12.87262,-7.97413 -14.12572,-7.97413 -0.68349,0 -0.79741,0.79741 -0.45566,2.27832 0.34175,1.13917 0.022,2.27833 -1.02523,3.41749 -5.69584,5.6958 -5.69584,9.11329 -2.27832,15.94825 2.27832,5.69581 2.27832,10.25246 -1.13921,13.55604 -6.83495,5.6958 -12.18901,-1.13916 -12.30294,-17.20135 -0.0569,-7.97413 0.22787,-9.11329 2.27832,-14.23951 1.1392,-3.41749 3.41752,-5.69581 5.69583,-6.83497 1.13913,-0.79743 2.27833,-1.13917 2.27833,-2.27833 0,-0.45567 -20.84666,-12.53077 -23.46672,-13.55602 -0.79742,-0.34175 -2.27832,-1.02524 -2.27832,-1.13917 -1.02525,-2.27832 -3.41753,-1.02524 -3.41753,1.02524 0,2.27834 -3.41746,7.97414 -5.6958,10.25247 -0.56953,0.68349 -3.41746,5.69581 -6.83496,12.30295 -5.69578,10.25244 -5.69578,11.61944 -5.69578,17.65699 -0.0564,6.83497 0.34171,7.97414 5.69578,20.39099 5.69584,12.41687 5.69584,13.44211 6.83496,19.59359 1.02526,9.11329 -1.13912,16.17609 -7.97413,24.26415 -3.41743,3.41748 -9.11327,6.83496 -11.50551,6.83496 -2.27833,0 -6.83497,-5.6958 -7.97412,-12.30294 -2.27834,-7.97414 -2.27834,-14.1256 0.45565,-25.40331 1.13915,-6.83497 1.13915,-21.64407 -0.45565,-27.79555 -0.5696,-2.27831 -1.02527,-6.83496 -1.02527,-10.25244 -0.0809,-7.97414 -0.91133,-6.83498 11.61948,-22.32758 6.83496,-9.11329 15.2647,-17.77092 16.51777,-17.77092 0.45568,0 0.79745,-0.56959 0.68354,-1.13916 -0.022,-1.13916 -11.3916,-7.97414 -12.98642,-7.97414 -0.56961,0 -2.27833,1.13916 -3.4175,3.41749 -1.13916,2.27832 -3.41748,4.55665 -4.55666,5.69581 -3.4175,3.41748 -12.7586,17.99875 -12.7586,19.024 0,0.45566 -0.34177,0.91134 -0.79743,0.91134 -0.45571,0 -2.2783,3.41748 -4.55661,6.83496 l -3.41753,6.83497 0.79745,12.53078 c 1.02523,15.60651 1.02523,40.66807 0.1139,50.23702 -0.79744,9.1133 -0.0557,11.39162 6.83499,17.42918 2.2783,2.27832 5.69578,6.83497 6.83495,9.11329 3.41742,6.83498 5.69584,17.88486 5.69584,25.17552 -0.0569,13.32816 -6.83501,31.32691 -14.23955,40.09845 -3.41747,3.41751 -3.41747,3.41751 -4.55666,2.27837 -3.41746,-2.27837 -5.69577,-9.11328 -9.11327,-23.35284 -6.83482,-26.31463 -10.2523,-31.89653 -22.78309,-29.6182 -6.83497,1.13916 -6.83497,1.13916 -11.39161,-2.27833 -6.83492,-5.69582 -9.11325,-14.35344 -16.06214,-44.31339 -3.41748,-18.11268 -9.11329,-38.73151 -10.25245,-40.44025 -1.13916,-2.27832 -3.41748,-18.68225 -2.27832,-22.66932 0.79741,-4.55665 0.91133,-4.55665 10.25245,-18.56834 7.97413,-12.6447 6.83497,-11.39162 20.96058,-33.83311 6.83497,-11.73337 10.25246,-17.20133 9.11329,-18.11266 -0.45566,-0.6835 -3.41748,-2.27833 -5.6958,-3.41749 -2.27833,-1.13916 -11.61945,-6.83497 -19.7075,-11.39162 -7.97413,-4.55664 -12.07512,-7.97414 -14.58127,-6.83498 z m 130.21758,76.77951 c 0.79743,0.11392 1.13917,0.45566 2.27834,1.02524 4.55662,3.41749 3.41745,7.97413 -3.41751,14.12561 -4.55664,3.41749 -4.55664,4.55665 -4.55664,7.97413 0,2.27832 1.02524,7.97413 2.2783,12.75861 2.27834,6.83496 2.27834,11.39161 2.27834,17.20134 -0.033,7.97413 -0.7974,11.73336 -3.41748,14.23952 -2.27833,2.27832 -3.41753,2.27832 -5.69579,-0.79741 -7.97415,-7.97413 -11.50554,-29.6182 -7.97415,-41.92115 2.2783,-5.6958 7.97415,-16.40393 10.25241,-19.70749 3.41753,-3.41749 5.69586,-4.55665 7.97418,-4.55665 z m 24.26414,124.08889 c 4.55664,0 12.07513,4.55664 14.69519,9.1133 3.41749,6.83495 2.27835,17.77088 -3.41746,26.54246 -3.41749,5.69583 -12.41689,14.12557 -18.91012,18.91007 -4.55662,3.41754 -6.83496,4.55669 -9.11328,4.55669 -4.55663,0 -6.83498,-1.13915 -10.25248,-6.835 -2.27833,-3.41746 -2.27833,-4.55666 -2.27833,-11.3916 -0.011,-9.1133 1.13919,-12.18905 11.39163,-25.40331 9.1133,-11.61946 13.10038,-15.03694 18.79619,-15.03694 z m -118.40446,9.1133 c 3.41749,-0.22784 6.83497,0.34172 9.1133,2.27831 4.55664,2.27832 7.97413,10.25245 12.41687,27.4538 2.27832,10.25247 2.27832,13.21428 0.56958,15.26477 -2.27832,2.27832 -4.55666,2.27832 -9.11331,-2.2783 -10.25245,-11.39166 -20.96057,-31.78266 -19.25182,-38.50369 0.45566,-2.27832 2.27832,-3.41746 5.6958,-3.41746 z"
         id="path4114"
         inkscape:connector-curvature="0" />
    </g>
  </g>
  <g
     inkscape:groupmode="layer"
     id="layer2"
     inkscape:label="schwarz"
     style="display:inline">
    <path
       style="fill:#000000;stroke-width:0.89832014"
       d="m 513.0024,204.26169 c -1.13915,0 -2.27833,0.56958 -3.41748,1.13916 -1.13917,2.27834 -10.25246,18.22656 -19.93533,34.6305 -5.69586,9.11329 -11.39159,18.91009 -12.07512,21.07453 -1.13916,2.2783 -2.27833,4.55659 -3.41749,4.55659 -0.34175,0.45565 -7.97413,12.98646 -16.17611,27.7956 -7.97413,14.80907 -19.9353,34.63051 -25.4033,43.97161 -20.61882,35.76972 -30.87128,53.65451 -40.55413,70.5141 -5.69582,9.11331 -11.84728,20.61884 -14.1256,24.26413 -2.27836,3.41752 -5.69582,9.11336 -6.835,12.53083 -2.27831,3.41748 -6.83496,11.39162 -10.25244,17.99873 -3.41748,6.835 -9.1133,14.92303 -10.25246,18.34052 -2.27832,3.41749 -4.55665,6.83497 -4.55665,9.11329 -0.91133,1.13917 -1.13916,2.27833 -1.13916,3.41748 0,0.45567 -0.56958,1.13915 -1.13916,2.27832 -0.6835,0.56958 -1.13916,1.13915 -1.13916,2.2784 0,0.56953 3.41748,3.41742 9.11329,5.69572 4.55665,2.27834 10.25246,5.69587 11.84729,6.83498 2.27832,1.02525 4.55665,2.27834 5.69581,3.4175 1.13916,0.56955 2.27832,1.13917 2.27832,1.13917 0.22782,0.34174 3.41747,2.2783 6.83498,4.55661 3.41747,2.27834 6.83494,3.4175 7.97412,3.4175 0.56957,0 3.41746,-3.4175 6.83497,-7.97411 6.83497,-10.25247 13.44204,-14.80913 24.26408,-20.16317 17.08751,-7.97415 37.25066,-12.6447 93.41131,-19.82139 5.69581,-0.79746 11.39161,-1.1392 12.07512,-2.27836 0.68351,-0.22782 3.41748,-0.79741 6.83497,-1.13916 28.47905,-4.55664 52.85713,-10.25246 76.77951,-20.16319 10.25244,-4.55661 35.76972,-17.8848 39.415,-21.30226 0.45569,-0.45566 -2.27832,-5.69584 -5.69584,-10.25251 -3.41747,-5.69579 -5.69577,-10.25241 -5.69577,-10.25241 0,-0.22784 -1.02527,-2.27831 -2.27834,-4.55667 -1.13914,-2.27832 -3.41748,-5.69584 -4.55667,-6.835 -9.11324,-16.85957 -14.69517,-25.97285 -15.6065,-27.11203 -0.56956,-0.68349 -2.27831,-3.41749 -4.55666,-6.83496 -2.27831,-3.41751 -5.69576,-9.1133 -7.97412,-13.89775 -5.69578,-9.11332 -13.4421,-23.12498 -16.85958,-29.1626 -2.27833,-3.41745 -5.69581,-9.11326 -23.58067,-40.782 -4.55664,-7.97407 -10.25244,-17.9987 -13.44206,-23.35278 -3.4175,-5.6958 -6.83498,-12.53077 -9.11329,-15.72042 -2.27837,-3.4175 -7.97421,-12.87253 -12.41691,-21.53015 -7.97411,-14.23956 -9.11328,-15.72042 -11.39159,-15.72042 z m 201.60883,346.31655 c -0.34173,0 -1.13912,0.56958 -2.27833,1.13916 -0.68348,0.6835 -5.69577,5.69581 -11.96119,12.41687 -16.51785,16.97351 -29.04859,30.3017 -47.16129,50.12312 -14.35342,15.72043 -20.73275,22.44148 -30.30171,32.01044 -4.55665,4.55665 -9.11327,9.1133 -9.11327,10.25246 0,0.34175 1.13917,1.13916 3.41744,2.27832 2.27841,0.91133 5.69583,3.41748 9.11333,5.6958 20.61883,12.18903 47.16127,27.33988 47.95875,27.33988 0.45561,0 0.91131,0.34175 0.91131,0.91133 0,0.45566 0.3417,0.91133 0.7974,0.91133 0.45568,0 9.1133,4.55665 19.70749,11.39162 10.25246,5.69581 23.80854,13.78386 29.84605,17.20134 5.69577,3.41749 14.58124,7.97414 19.13791,11.39162 4.55666,2.27833 11.39166,6.83497 14.92303,7.97413 3.41747,2.27832 6.83494,3.41749 6.83494,4.55665 0.22784,0.34175 3.41751,2.27832 7.97413,4.55665 6.83498,3.41748 12.07513,6.83497 15.37874,9.11329 0.91129,0.56958 3.41746,2.27832 4.55666,2.27832 1.1391,0.6835 3.41742,2.27832 5.69576,3.41749 1.1392,0.91132 5.69582,3.4175 10.25246,5.69582 10.25247,5.69581 15.15084,9.11332 27.11205,15.72039 5.69579,3.41749 11.39161,6.83501 12.87252,6.83501 v 0.044 c 2.27836,1.13916 2.27836,1.13916 3.41748,-0.79744 0.11394,-1.13915 -0.56955,-3.41748 -1.13912,-4.55664 -0.91135,-1.13916 -2.27836,-3.41747 -3.41754,-5.69578 -10.25242,-18.68227 -36.56703,-63.67916 -40.3263,-69.83064 -2.27833,-3.41748 -3.4175,-6.83497 -3.4175,-6.83497 0,-0.22783 -4.55662,-6.83497 -9.11326,-15.49259 -4.55668,-7.97373 -12.41691,-21.41584 -16.74569,-29.04822 -4.55667,-7.97414 -10.25248,-17.77093 -13.10039,-22.4415 -2.27827,-4.55664 -6.83494,-11.39161 -7.97411,-14.8091 -2.27833,-3.41748 -4.55667,-7.97413 -5.69578,-9.11329 -1.02527,-2.27832 -3.41754,-4.55665 -4.55667,-6.83497 -1.13916,-2.27832 -5.69584,-9.11329 -9.11332,-15.26477 -3.41748,-5.69581 -7.97412,-13.89777 -10.25245,-17.08743 -9.11327,-16.17609 -13.89778,-24.26414 -14.58126,-24.26414 z m -407.8085,9.11329 c -2.27832,0.45568 -3.41748,3.41748 -7.97413,11.39163 -2.27832,4.55664 -9.11329,16.85959 -15.26476,26.42855 -5.69581,9.11329 -10.25246,18.3405 -11.39162,19.36574 -0.45567,1.02526 -1.13916,3.41749 -2.27832,4.55666 -2.27832,4.55663 -14.58127,24.83372 -16.97351,29.16253 -1.13917,2.27832 -3.41749,5.69582 -4.55665,7.97414 -1.13916,2.27832 -4.55665,7.97413 -6.83497,11.96119 -2.27832,4.55665 -4.55665,7.97414 -4.55665,7.97414 0,0.22782 -1.13916,3.41748 -3.41748,6.83497 -2.27833,3.41748 -4.55665,6.83496 -4.55665,7.97413 -0.45567,1.02523 -1.13916,3.41748 -2.27832,4.55664 -2.27834,4.55665 -20.391,34.97227 -21.0745,36.33926 -0.34175,0.68351 -1.13917,2.27833 -2.27832,3.41749 -0.56958,1.02524 -3.41749,5.6958 -5.69581,9.11329 -2.27833,4.55665 -6.83497,12.30295 -10.25246,18.11267 -3.41748,5.69581 -5.69581,11.3916 -5.69581,11.50555 0,0.56958 -0.34174,1.02524 -0.6835,1.02524 -0.45566,0 -1.13915,1.02523 -2.27832,2.2783 -0.56958,1.13915 -6.83497,12.30297 -13.89777,24.49196 -6.83497,12.07514 -14.23952,24.71985 -15.83436,27.90951 -1.13916,3.41745 -3.41749,5.69578 -3.41749,6.83494 -0.34177,0.22784 -2.27833,3.41748 -3.41747,5.69583 -1.13916,3.41746 -3.41749,6.83495 -4.55666,7.97416 -0.91132,1.1391 -1.13919,3.41742 -1.13919,4.55663 l 0.0569,2.27829 h 344.72181 344.73311 l -3.41746,-2.27829 c -2.27832,-1.0253 -3.4175,-2.27834 -4.55665,-2.27834 -0.68347,-0.45566 -3.41748,-2.27829 -6.83496,-3.4175 -3.41753,-1.13917 -13.21425,-7.97409 -22.89714,-13.21428 -9.11332,-5.69579 -18.91009,-11.39161 -20.61885,-11.96117 -2.27834,-1.02527 -12.30296,-6.83496 -23.35278,-13.55605 -28.59299,-16.51783 -48.4144,-28.02335 -52.05975,-30.07384 -2.2783,-0.91135 -9.11328,-5.69581 -16.17601,-9.1133 -6.83504,-4.55664 -15.26481,-9.11331 -17.8849,-10.25247 -2.27831,-1.13916 -5.69578,-3.41748 -5.69578,-3.41748 -0.68351,-0.68349 -3.41752,-2.27832 -10.25246,-6.83497 -3.41752,-2.27832 -12.07516,-6.83497 -18.45444,-10.25246 -6.83493,-3.41748 -13.44211,-7.97413 -15.72038,-9.11329 -2.27837,-1.13916 -10.25253,-5.69581 -16.85966,-9.11329 -6.83498,-4.55665 -13.21427,-6.83497 -13.66994,-6.83497 -0.45567,0 -1.02525,-0.34175 -1.13914,-0.6835 -0.45568,-1.02524 -18.7962,-11.84728 -20.16321,-11.84728 -0.56954,0 -3.41746,2.27832 -5.69581,4.55664 -2.2783,2.27833 -5.69579,5.69582 -7.97411,6.83498 -7.97413,7.97413 -22.78322,22.78323 -36.68098,39.30107 -11.39164,13.44211 -14.6952,16.85959 -16.85962,16.85959 -0.68349,0 -2.27833,-2.27831 -3.41749,-4.55664 -3.41748,-7.97413 -6.83496,-9.11329 -14.12559,-11.50553 -10.25246,-2.27832 -17.08744,-0.79742 -24.83373,6.83497 -5.69582,4.55664 -13.44211,16.28998 -17.08742,23.92237 -2.27835,4.55668 -4.55665,7.97416 -6.83497,6.835 -1.13915,-0.68348 -1.02524,-6.835 1.13916,-34.63051 1.02524,-12.87253 2.27832,-16.97352 3.41746,-21.53016 4.55666,-11.39163 13.32822,-22.66932 29.73213,-39.52892 15.0369,-15.37868 23.12492,-24.15023 24.15019,-25.85898 0.45565,-0.79741 1.13915,-2.27832 2.27835,-2.27832 3.41745,-3.41748 3.41745,-4.55664 -0.68351,-6.83497 -2.27833,-1.13916 -3.41751,-2.27832 -4.55664,-2.27832 -0.34178,0 -2.27834,-1.02524 -4.55666,-2.27832 -4.55675,-3.41748 -12.87262,-7.97413 -14.12572,-7.97413 -0.68349,0 -0.79741,0.79741 -0.45566,2.27832 0.34175,1.13917 0.022,2.27833 -1.02524,3.41749 -5.69583,5.6958 -5.69583,9.11329 -2.27832,15.94825 2.27832,5.69581 2.27832,10.25246 -1.1392,13.55604 -6.83495,5.6958 -12.18901,-1.13916 -12.30294,-17.20135 -0.0569,-7.97413 0.22787,-9.11329 2.27832,-14.23951 1.13919,-3.41749 3.41751,-5.69581 5.69582,-6.83497 1.13914,-0.79743 2.27833,-1.13917 2.27833,-2.27833 0,-0.45567 -20.84666,-12.53077 -23.46671,-13.55602 -0.79743,-0.34175 -2.27832,-1.02524 -2.27832,-1.13917 -1.02525,-2.27832 -3.41753,-1.02524 -3.41753,1.02524 0,2.27834 -3.41747,7.97414 -5.6958,10.25247 -0.56953,0.68349 -3.41747,5.69581 -6.83496,12.30295 -5.69579,10.25244 -5.69579,11.61944 -5.69579,17.65699 -0.0564,6.83497 0.34172,7.97414 5.69579,20.39099 5.69584,12.41687 5.69584,13.44211 6.83496,19.59359 1.02526,9.11329 -1.13912,16.17609 -7.97413,24.26415 -3.41743,3.41748 -9.11327,6.83496 -11.50551,6.83496 -2.27834,0 -6.83498,-5.6958 -7.97412,-12.30294 -2.27835,-7.97414 -2.27835,-14.1256 0.45565,-25.40331 1.13915,-6.83497 1.13915,-21.64407 -0.45565,-27.79555 -0.56961,-2.27831 -1.02527,-6.83496 -1.02527,-10.25244 -0.0808,-7.97414 -0.91133,-6.83498 11.61948,-22.32758 6.83496,-9.11329 15.2647,-17.77092 16.51777,-17.77092 0.45568,0 0.79745,-0.56959 0.68354,-1.13916 -0.022,-1.13916 -11.3916,-7.97414 -12.98642,-7.97414 -0.56962,0 -2.27833,1.13916 -3.4175,3.41749 -1.13916,2.27832 -3.41748,4.55665 -4.55667,5.69581 -3.41749,3.41748 -12.75859,17.99875 -12.75859,19.024 0,0.45566 -0.34177,0.91134 -0.79743,0.91134 -0.45571,0 -2.2783,3.41748 -4.55661,6.83496 l -3.41753,6.83497 0.79745,12.53078 c 1.02522,15.60651 1.02522,40.66807 0.1139,50.23702 -0.79744,9.1133 -0.0557,11.39162 6.83499,17.42918 2.2783,2.27832 5.69578,6.83497 6.83495,9.11329 3.41742,6.83498 5.69584,17.88486 5.69584,25.17552 -0.0569,13.32816 -6.83501,31.32691 -14.23955,40.09845 -3.41747,3.41751 -3.41747,3.41751 -4.55667,2.27837 -3.41745,-2.27837 -5.69576,-9.11328 -9.11326,-23.35284 -6.83482,-26.31463 -10.2523,-31.89653 -22.78309,-29.6182 -6.83498,1.13916 -6.83498,1.13916 -11.39162,-2.27833 -6.83491,-5.69582 -9.11324,-14.35344 -16.06213,-44.31339 -3.41748,-18.11268 -9.11329,-38.73151 -10.25245,-40.44025 -1.13916,-2.27832 -3.41748,-18.68225 -2.27832,-22.66932 0.79741,-4.55665 0.91133,-4.55665 10.25245,-18.56834 7.97413,-12.6447 6.83497,-11.39162 20.96058,-33.83311 6.83497,-11.73337 10.25246,-17.20133 9.11329,-18.11266 -0.45567,-0.6835 -3.41748,-2.27833 -5.6958,-3.41749 -2.27833,-1.13916 -11.61946,-6.83497 -19.7075,-11.39162 -7.97413,-4.55664 -12.07512,-7.97414 -14.58127,-6.83498 z m 130.21759,76.77951 c 0.79743,0.11392 1.13917,0.45566 2.27834,1.02524 4.55662,3.41749 3.41745,7.97413 -3.41751,14.12561 -4.55664,3.41749 -4.55664,4.55665 -4.55664,7.97413 0,2.27832 1.02524,7.97413 2.27829,12.75861 2.27835,6.83496 2.27835,11.39161 2.27835,17.20134 -0.033,7.97413 -0.79741,11.73336 -3.41748,14.23952 -2.27834,2.27832 -3.41753,2.27832 -5.69579,-0.79741 -7.97416,-7.97413 -11.50554,-29.6182 -7.97416,-41.92115 2.27831,-5.6958 7.97416,-16.40393 10.25242,-19.70749 3.41753,-3.41749 5.69586,-4.55665 7.97418,-4.55665 z m 24.26414,124.08889 c 4.55664,0 12.07513,4.55664 14.69518,9.1133 3.41749,6.83495 2.27836,17.77088 -3.41745,26.54246 -3.4175,5.69583 -12.41689,14.12557 -18.91013,18.91007 -4.55661,3.41754 -6.83496,4.55669 -9.11328,4.55669 -4.55663,0 -6.83497,-1.13915 -10.25247,-6.835 -2.27833,-3.41746 -2.27833,-4.55666 -2.27833,-11.3916 -0.011,-9.1133 1.13919,-12.18905 11.39163,-25.40331 9.11329,-11.61946 13.10038,-15.03694 18.79619,-15.03694 z m -118.40448,9.1133 c 3.4175,-0.22784 6.83498,0.34172 9.11331,2.27831 4.55664,2.27832 7.97413,10.25245 12.41686,27.4538 2.27832,10.25247 2.27832,13.21428 0.56958,15.26477 -2.27832,2.27832 -4.55665,2.27832 -9.1133,-2.2783 -10.25245,-11.39166 -20.96058,-31.78266 -19.25183,-38.50369 0.45567,-2.27832 2.27832,-3.41746 5.6958,-3.41746 z"
       id="path3926"
       inkscape:connector-curvature="0" />
  </g>
</svg>
