<?xml version="1.0" encoding="UTF-8" standalone="no"?>
<!-- Created with Inkscape (http://www.inkscape.org/) -->

<svg
   xmlns:dc="http://purl.org/dc/elements/1.1/"
   xmlns:cc="http://creativecommons.org/ns#"
   xmlns:rdf="http://www.w3.org/1999/02/22-rdf-syntax-ns#"
   xmlns:svg="http://www.w3.org/2000/svg"
   xmlns="http://www.w3.org/2000/svg"
   xmlns:sodipodi="http://sodipodi.sourceforge.net/DTD/sodipodi-0.dtd"
   xmlns:inkscape="http://www.inkscape.org/namespaces/inkscape"
   version="1.1"
   id="svg45"
   width="903.46667"
   height="904.53333"
   viewBox="0 0 903.46667 904.53333"
   sodipodi:docname="antifascist.svg"
   inkscape:version="0.92.5 (2060ec1f9f, 2020-04-08)">
  <metadata
     id="metadata51">
    <rdf:RDF>
      <cc:Work
         rdf:about="">
        <dc:format>image/svg+xml</dc:format>
        <dc:type
           rdf:resource="http://purl.org/dc/dcmitype/StillImage" />
        <dc:title />
      </cc:Work>
    </rdf:RDF>
  </metadata>
  <defs
     id="defs49" />
  <sodipodi:namedview
     pagecolor="#ffffff"
     bordercolor="#666666"
     borderopacity="1"
     objecttolerance="10"
     gridtolerance="10"
     guidetolerance="10"
     inkscape:pageopacity="0"
     inkscape:pageshadow="2"
     inkscape:window-width="1920"
     inkscape:window-height="1053"
     id="namedview47"
     showgrid="false"
     inkscape:zoom="0.68167429"
     inkscape:cx="-111.24128"
     inkscape:cy="495.95188"
     inkscape:window-x="0"
     inkscape:window-y="0"
     inkscape:window-maximized="1"
     inkscape:current-layer="layer3" />
  <g
     id="g99" />
  <g
     inkscape:groupmode="layer"
     id="layer1"
     inkscape:label="ring"
     style="display:inline">
    <path
       inkscape:connector-curvature="0"
       id="path4520"
       d="M 429.86667,903.44259 C 358.61725,898.05685 307.64115,884.44793 249.6,855.31743 204.76891,832.81697 168.57281,806.61963 132.74689,770.74368 95.588873,733.53377 69.44351,697.00008 46.431994,650.13333 15.136833,586.39557 0.63362593,523.54508 0.64976015,451.73333 0.65666465,421.0021 1.9995339,404.952 7.0307915,375.46667 31.191933,233.87198 123.31851,111.23542 253.72682,47.071199 309.02061,19.865235 363.71266,5.6051384 430.4,1.0064309 449.48736,-0.309819 463.77748,0.08671588 492.8,2.7379616 604.56443,12.947791 707.72846,64.15799 783.82184,147.2 834.71936,202.74535 870.16642,267.54747 888.555,338.66667 905.64058,404.74646 907.89087,470.4219 895.3164,536 872.5561,654.69889 803.99261,758.72429 704,826.26764 c -55.10819,37.22468 -115.36756,61.09548 -181.31777,71.82617 -27.54888,4.48245 -71.08529,6.99137 -92.81556,5.34878 z m 42.8359,-78.92193 c 26.98741,-1.16458 45.8697,-3.9137 70.7641,-10.30275 70.42951,-18.07546 129.15985,-53.07426 181.0437,-107.88827 56.29029,-59.4693 92.33987,-140.16866 98.91059,-221.41788 1.38394,-17.11283 1.39801,-53.12068 0.0263,-67.31176 -6.95996,-72.00485 -35.18688,-141.42753 -80.66849,-198.4 -12.09545,-15.15129 -43.55159,-46.63781 -58.28464,-58.34091 -45.0803,-35.8092 -96.8142,-60.58372 -151.89777,-72.741361 -33.12615,-7.311361 -36.10305,-7.587604 -81.39641,-7.553217 -39.90516,0.03029 -41.53428,0.113528 -57.6,2.942824 -40.88919,7.200902 -74.10737,18.026994 -108.98713,35.519854 -35.82558,17.9672 -66.37423,40.23153 -96.39637,70.25517 -58.78387,58.7868 -95.925095,133.79953 -106.542282,215.17937 -3.959532,30.34948 -3.058068,79.62953 1.986675,108.60493 11.386415,65.39996 36.189547,120.70782 77.493167,172.8 11.6196,14.65466 43.20657,46.22806 58.04594,58.02099 54.64849,43.42948 118.81524,70.50249 187.2,78.98275 22.72786,2.81844 33.19455,3.07895 66.30257,1.65026 z"
       style="display:inline;fill:#000013;fill-opacity:1;stroke-width:1.06666672"
       sodipodi:nodetypes="ssssssssssssssscsssscssssssssssscc" />
  </g>
  <g
     inkscape:groupmode="layer"
     id="layer2"
     inkscape:label="red"
     style="display:inline">
    <path
       style="fill:#fe000b;fill-opacity:1;stroke-width:1.06666672"
       d="m 460.26667,801.50086 c -1.17333,-0.28449 -3.21333,-0.74771 -4.53333,-1.02939 -1.32,-0.28166 -2.4,-1.12966 -2.4,-1.88444 0,-1.64279 15.02494,-27.91744 83.59555,-146.18652 C 565.458,603.19412 588.8,562.33571 588.8,561.60403 c 0,-2.98806 -11.51029,-18.69253 -19.60963,-26.75508 -22.94507,-22.84085 -48.80358,-32.61836 -94.79169,-35.84224 -18.69775,-1.31077 -33.73491,-0.88424 -104.26535,2.95744 -36.51601,1.98897 -82.52081,1.52383 -103.46666,-1.04613 -34.77958,-4.26727 -59.2816,-11.23155 -86.93334,-24.70929 -24.47397,-11.92886 -42.60807,-25.26633 -64.39384,-47.36109 l -13.19385,-13.38097 0.62106,-8 c 9.36762,-75.06662 50.53573,-151.5928 97.19522,-198.93454 15.88417,-15.84505 36.39196,-33.58156 38.84101,-33.59233 0.80828,-0.003 6.28139,4.61202 12.16248,10.25683 25.44076,24.41863 50.58433,37.74076 83.23975,44.10389 38.08687,7.42148 70.38351,5.97634 156.99484,-7.02487 17.6,-2.64194 40.88,-5.96521 51.73334,-7.38506 74.29347,-9.71913 121.83039,-3.37006 158.4,21.15604 9.8602,6.61293 30.15776,27.71249 37.77193,39.26438 9.75489,14.7997 25.69473,48.93606 25.69473,55.02719 0,2.34949 -41.86246,75.00079 -152.00163,263.79513 -59.12046,101.34096 -64.92838,111.35345 -92.21138,158.96664 -13.60431,23.74168 -25.8746,44.32861 -27.26734,45.74875 -2.39327,2.44034 -3.31121,2.59817 -16.72594,2.87573 -7.80654,0.16151 -15.15371,0.0609 -16.32704,-0.22359 z"
       id="path109"
       inkscape:connector-curvature="0"
       sodipodi:nodetypes="scsssssssssccccsssssssssccs" />
  </g>
  <g
     inkscape:groupmode="layer"
     id="layer3"
     inkscape:label="black"
     style="display:inline">
    <path
       style="fill:#090000;stroke-width:1.06666672;fill-opacity:1"
       d="m 346.94371,785.02311 c -7.76761,-1.07308 -14.61845,-2.25728 -15.22407,-2.63158 -0.65554,-0.40514 14.01617,-30.59143 36.25629,-74.59543 20.54657,-40.65319 37.3574,-74.68128 37.3574,-75.61797 0,-2.49225 -2.56683,-3.48737 -13.86666,-5.37589 -16.01609,-2.67674 -39.2104,-4.73864 -79.46667,-7.06433 -41.81987,-2.41602 -55.70732,-3.5712 -72,-5.98908 -84.81109,-12.58614 -125.06676,-54.50713 -138.67862,-144.4155 -2.466695,-16.29286 -3.770917,-32 -2.657084,-32 0.453385,0 6.015054,5.01488 12.359264,11.14418 46.30304,44.73452 94.3341,64.34014 168.89374,68.94012 19.43054,1.19877 71.19522,0.0577 100.34937,-2.212 24.46192,-1.90442 68.59561,-2.53097 80.45675,-1.1422 22.53686,2.63874 44.87692,10.21243 44.87626,15.21386 -4.1e-4,3.1403 -11.30583,24.29321 -63.19205,118.23507 -23.15422,41.92154 -49.42519,89.66097 -58.37993,106.08764 -8.95473,16.42666 -17.01866,30.70666 -17.91984,31.73333 -1.91259,2.17893 -1.04416,2.19299 -19.16415,-0.31022 z"
       id="path103"
       inkscape:connector-curvature="0"
       sodipodi:nodetypes="ccssssssssssscsscc" />
  </g>
</svg>
